<svg width="73" height="37" viewBox="0 0 73 37" fill="none" xmlns="http://www.w3.org/2000/svg">
<path d="M2.76 20V2.48H6.36V16.76H13.44V20H2.76ZM20.1746 20.24C18.3826 20.24 16.9586 19.792 15.9026 18.896C14.8466 17.984 14.3186 16.752 14.3186 15.2H17.9186C17.9186 15.84 18.1106 16.344 18.4946 16.712C18.8946 17.064 19.4546 17.24 20.1746 17.24C21.6786 17.24 22.4306 16.56 22.4306 15.2V13.808C22.4306 13.152 22.2306 12.648 21.8306 12.296C21.4466 11.928 20.8946 11.744 20.1746 11.744H18.0146V8.96L21.5666 5.48H15.1586V2.48H25.3586V5.264L21.7106 8.84C23.0546 9.08 24.1106 9.632 24.8786 10.496C25.6466 11.36 26.0306 12.456 26.0306 13.784V15.2C26.0306 16.752 25.5026 17.984 24.4466 18.896C23.4066 19.792 21.9826 20.24 20.1746 20.24ZM33.2453 20.24C31.4533 20.24 30.0293 19.792 28.9733 18.896C27.9173 17.984 27.3893 16.752 27.3893 15.2H30.9893C30.9893 15.84 31.1813 16.344 31.5653 16.712C31.9653 17.064 32.5253 17.24 33.2453 17.24C34.7493 17.24 35.5013 16.56 35.5013 15.2V13.808C35.5013 13.152 35.3013 12.648 34.9013 12.296C34.5173 11.928 33.9653 11.744 33.2453 11.744H31.0853V8.96L34.6373 5.48H28.2293V2.48H38.4293V5.264L34.7813 8.84C36.1253 9.08 37.1813 9.632 37.9493 10.496C38.7173 11.36 39.1013 12.456 39.1013 13.784V15.2C39.1013 16.752 38.5733 17.984 37.5173 18.896C36.4773 19.792 35.0533 20.24 33.2453 20.24ZM44.6119 20V5.72H40.1719V2.48H52.6519V5.72H48.2119V20H44.6119Z" fill="black"/>
<path d="M5.296 35L2.4 23.32H4.88L6.496 30.696C6.54933 30.952 6.61333 31.2773 6.688 31.672C6.77333 32.0667 6.83733 32.4027 6.88 32.68C6.92267 32.4027 6.976 32.0667 7.04 31.672C7.104 31.2773 7.16267 30.9467 7.216 30.68L8.784 23.32H11.2L8.336 35H5.296ZM15.5298 35.16C14.7511 35.16 14.0684 35.016 13.4818 34.728C12.9057 34.4293 12.4577 34.0187 12.1377 33.496C11.8284 32.9627 11.6737 32.344 11.6737 31.64V29.56C11.6737 28.856 11.8284 28.2427 12.1377 27.72C12.4577 27.1867 12.9057 26.776 13.4818 26.488C14.0684 26.1893 14.7511 26.04 15.5298 26.04C16.3084 26.04 16.9804 26.1893 17.5458 26.488C18.1218 26.776 18.5644 27.1867 18.8738 27.72C19.1938 28.2427 19.3538 28.856 19.3538 29.56V31.16H13.9618V31.64C13.9618 32.76 14.4951 33.32 15.5617 33.32C16.3191 33.32 16.7724 33.08 16.9218 32.6H19.2738C19.0818 33.368 18.6444 33.9867 17.9618 34.456C17.2898 34.9253 16.4791 35.16 15.5298 35.16ZM13.9618 29.56V29.8L17.0658 29.768V29.528C17.0658 28.408 16.5538 27.848 15.5298 27.848C15.0071 27.848 14.6124 27.9973 14.3458 28.296C14.0898 28.5947 13.9618 29.016 13.9618 29.56ZM20.4835 35V26.2H22.8035V27.88H22.8515C22.9582 27.3147 23.2142 26.8667 23.6195 26.536C24.0248 26.2053 24.5422 26.04 25.1715 26.04C26.0248 26.04 26.7075 26.3387 27.2195 26.936C27.7422 27.5333 28.0035 28.328 28.0035 29.32V35H25.6035V29.56C25.6035 29.1013 25.4808 28.7493 25.2355 28.504C25.0008 28.248 24.6702 28.12 24.2435 28.12C23.8168 28.12 23.4808 28.248 23.2355 28.504C23.0008 28.7493 22.8835 29.1013 22.8835 29.56V35H20.4835ZM33.9013 35C33.0053 35 32.3013 34.744 31.7893 34.232C31.2773 33.72 31.0213 33.016 31.0213 32.12V28.36H28.7013V26.2H31.0213V23.72H33.4213V26.2H36.7013V28.36H33.4213V32.04C33.4213 32.2747 33.4799 32.4667 33.5973 32.616C33.7253 32.7653 33.9066 32.84 34.1413 32.84H36.5413V35H33.9013ZM41.655 35.16C40.471 35.16 39.543 34.84 38.871 34.2C38.2097 33.56 37.879 32.6853 37.879 31.576V26.2H40.279V31.56C40.279 32.5733 40.7377 33.08 41.655 33.08C42.0923 33.08 42.4283 32.952 42.663 32.696C42.9083 32.4293 43.031 32.0507 43.031 31.56V26.2H45.431V31.576C45.431 32.696 45.095 33.576 44.423 34.216C43.751 34.8453 42.8283 35.16 41.655 35.16ZM46.8807 35V26.2H49.2007V27.88H49.2487C49.3661 27.304 49.6381 26.856 50.0647 26.536C50.5021 26.2053 51.0514 26.04 51.7127 26.04C52.6087 26.04 53.3287 26.344 53.8727 26.952C54.4167 27.5493 54.6887 28.3653 54.6887 29.4V30.2H52.1287V29.56C52.1287 29.1013 52.0061 28.7493 51.7607 28.504C51.5261 28.248 51.1794 28.12 50.7207 28.12C49.7607 28.12 49.2807 28.664 49.2807 29.752V35H46.8807ZM59.0985 35.16C58.3198 35.16 57.6372 35.016 57.0505 34.728C56.4745 34.4293 56.0265 34.0187 55.7065 33.496C55.3972 32.9627 55.2425 32.344 55.2425 31.64V29.56C55.2425 28.856 55.3972 28.2427 55.7065 27.72C56.0265 27.1867 56.4745 26.776 57.0505 26.488C57.6372 26.1893 58.3198 26.04 59.0985 26.04C59.8772 26.04 60.5492 26.1893 61.1145 26.488C61.6905 26.776 62.1332 27.1867 62.4425 27.72C62.7625 28.2427 62.9225 28.856 62.9225 29.56V31.16H57.5305V31.64C57.5305 32.76 58.0638 33.32 59.1305 33.32C59.8878 33.32 60.3412 33.08 60.4905 32.6H62.8425C62.6505 33.368 62.2132 33.9867 61.5305 34.456C60.8585 34.9253 60.0478 35.16 59.0985 35.16ZM57.5305 29.56V29.8L60.6345 29.768V29.528C60.6345 28.408 60.1225 27.848 59.0985 27.848C58.5758 27.848 58.1812 27.9973 57.9145 28.296C57.6585 28.5947 57.5305 29.016 57.5305 29.56ZM67.4283 35.16C66.7029 35.16 66.0683 35.048 65.5243 34.824C64.9803 34.5893 64.5536 34.2693 64.2443 33.864C63.9456 33.4587 63.7963 32.984 63.7963 32.44H66.1963C66.1963 33.0373 66.6069 33.336 67.4283 33.336H68.1323C69.0283 33.336 69.4763 33.048 69.4763 32.472C69.4763 31.9493 69.0603 31.6293 68.2283 31.512L66.9643 31.352C65.0229 31.1067 64.0523 30.2 64.0523 28.632C64.0523 27.7787 64.3456 27.1333 64.9323 26.696C65.5189 26.2587 66.3776 26.04 67.5083 26.04H68.1163C69.1936 26.04 70.0523 26.2747 70.6923 26.744C71.3323 27.2133 71.6523 27.8427 71.6523 28.632H69.2523C69.2523 28.12 68.8736 27.864 68.1163 27.864H67.5083C66.7509 27.864 66.3723 28.12 66.3723 28.632C66.3723 29.112 66.7189 29.4 67.4123 29.496L68.7083 29.672C70.7669 29.928 71.7963 30.8507 71.7963 32.44C71.7963 33.304 71.4869 33.976 70.8683 34.456C70.2496 34.9253 69.3376 35.16 68.1323 35.16H67.4283Z" fill="black"/>
</svg>
