<?xml version="1.0" standalone="no"?>
<!DOCTYPE svg PUBLIC "-//W3C//DTD SVG 20010904//EN"
 "http://www.w3.org/TR/2001/REC-SVG-20010904/DTD/svg10.dtd">
<svg version="1.0" xmlns="http://www.w3.org/2000/svg"
 width="1137.000000pt" height="1189.000000pt" viewBox="0 0 1137.000000 1189.000000"
 preserveAspectRatio="xMidYMid meet">

<g transform="translate(0.000000,1189.000000) scale(0.100000,-0.100000)"
 stroke="none">
<path d="M0 5945 l0 -5945 5685 0 5685 0 0 5945 0 5945 -5685 0 -5685 0 0
-5945z m8809 5348 c6 -21 42 -166 81 -323 39 -157 73 -292 76 -301 3 -12 -65
-51 -283 -164 -159 -82 -342 -178 -408 -212 l-120 -63 460 1 460 1 83 -337
c46 -186 82 -338 80 -340 -2 -1 -373 -94 -826 -206 l-822 -204 -10 35 c-5 19
-33 133 -63 252 l-54 217 51 11 c28 6 238 50 466 99 l415 88 -190 6 c-105 4
-260 7 -345 8 -85 0 -177 4 -204 7 l-50 7 -52 208 -52 207 42 24 c22 13 172
97 331 186 160 89 294 166 298 169 4 4 -195 -51 -443 -122 -248 -71 -453 -127
-456 -124 -9 9 -125 478 -121 490 3 9 1587 412 1634 416 7 0 17 -16 22 -36z
m-1826 -1580 c152 -615 641 -2587 1087 -4383 445 -1796 818 -3298 828 -3338
11 -40 16 -75 12 -77 -4 -2 -470 -119 -1036 -259 -566 -140 -1992 -494 -3169
-786 -1176 -291 -2144 -530 -2150 -530 -6 0 -187 714 -404 1587 -441 1780
-1057 4267 -1511 6096 -166 670 -298 1222 -294 1227 5 4 1258 317 2784 695
1526 378 2951 731 3165 785 215 54 395 99 400 99 6 1 135 -502 288 -1116z
m2356 -547 c34 -137 60 -249 59 -250 -31 -15 -1642 -406 -1647 -400 -8 9 -132
496 -127 501 8 8 1642 409 1647 404 3 -3 34 -118 68 -255z m153 -612 c31 -126
58 -234 58 -240 0 -6 -142 -133 -315 -283 -173 -150 -317 -277 -320 -281 -3
-5 34 3 82 16 385 107 644 176 647 173 2 -2 29 -107 60 -234 31 -126 59 -237
62 -247 4 -14 -109 -44 -808 -217 -447 -111 -820 -204 -828 -206 -13 -4 -27
40 -73 228 -32 127 -57 237 -57 244 0 6 132 126 293 265 160 139 306 265 322
280 l30 27 -50 -13 c-27 -8 -193 -53 -368 -101 -175 -48 -320 -85 -323 -83 -5
5 -123 492 -120 495 5 5 1632 411 1641 409 5 -1 35 -106 67 -232z m447 -1796
c83 -337 154 -622 157 -634 5 -20 -7 -24 -214 -76 l-220 -55 -47 189 c-40 157
-50 188 -64 184 -49 -16 -1193 -297 -1195 -294 -8 9 -126 501 -122 505 3 3
274 72 603 155 328 82 598 150 600 151 1 1 -19 85 -44 185 -25 100 -43 185
-40 188 4 5 401 109 428 113 4 1 75 -275 158 -611z m246 -988 c43 -172 59
-253 52 -255 -30 -11 -1619 -405 -1631 -405 -10 0 -32 73 -76 250 -34 138 -61
253 -58 255 6 7 1642 413 1647 409 1 -1 31 -116 66 -254z m104 -417 c6 -21 33
-130 61 -243 l51 -205 -24 -20 c-51 -41 -625 -540 -624 -542 1 -1 166 44 366
99 200 55 367 96 371 91 10 -11 123 -483 117 -489 -2 -3 -366 -95 -808 -205
-442 -110 -811 -202 -820 -204 -14 -5 -26 34 -77 237 -59 235 -60 244 -42 258
48 39 629 545 627 546 -1 1 -166 -43 -366 -98 -220 -60 -366 -96 -370 -90 -3
6 -33 117 -65 248 -48 192 -56 239 -45 243 15 5 1619 408 1631 410 4 1 12 -16
17 -36z m421 -1693 c34 -138 61 -253 59 -255 -3 -2 -124 -33 -269 -70 -146
-36 -272 -68 -280 -71 -8 -3 129 -44 305 -90 176 -47 323 -88 326 -92 8 -9
153 -592 148 -596 -2 -2 -193 66 -424 150 l-419 154 -41 -39 c-22 -21 -199
-192 -394 -380 -195 -187 -357 -339 -359 -336 -2 2 -39 144 -82 316 -76 304
-78 313 -59 328 175 147 546 467 544 469 -1 1 -121 -27 -266 -63 -145 -36
-290 -71 -321 -79 l-56 -13 -63 253 c-35 139 -61 255 -59 257 8 7 1603 405
1626 406 20 1 27 -19 84 -249z"/>
<path d="M5290 10146 c-620 -155 -934 -237 -951 -250 -42 -33 -62 -67 -67
-116 -2 -29 100 -868 259 -2121 171 -1353 260 -2084 255 -2103 -16 -65 -108
-126 -188 -126 -43 0 -106 30 -128 60 -10 15 -352 913 -760 1996 -807 2147
-750 2010 -842 2035 -51 14 58 38 -1077 -243 -573 -142 -863 -218 -884 -232
-43 -30 -68 -67 -74 -112 -4 -30 54 -277 241 -1029 134 -544 576 -2326 981
-3959 519 -2094 741 -2977 756 -2997 11 -16 33 -36 48 -43 67 -35 70 -34 744
133 356 88 659 167 674 175 15 8 41 28 57 45 58 60 65 25 -234 1152 -303 1140
-290 1073 -221 1139 79 75 203 79 268 9 13 -15 160 -409 393 -1054 204 -566
379 -1043 388 -1060 20 -35 93 -75 137 -75 56 0 1093 261 1128 284 50 34 77
82 77 136 0 26 -68 528 -150 1116 -91 644 -148 1082 -145 1102 9 47 70 105
128 121 82 23 174 -7 206 -68 5 -9 116 -480 246 -1046 131 -567 243 -1042 251
-1057 8 -14 28 -37 45 -49 66 -46 81 -44 769 126 372 92 651 165 675 178 44
24 85 86 85 129 0 48 -1960 7941 -1979 7968 -25 36 -98 70 -146 69 -22 -1
-456 -105 -965 -233z"/>
</g>
</svg>
